<svg width="960" height="420" viewBox="0 0 960 420" xmlns="http://www.w3.org/2000/svg" role="img" aria-label="Night runway environment">
  <rect width="960" height="420" fill="#0f172a"/>
  <rect y="250" width="960" height="170" fill="#064e3b"/>
  <rect x="120" y="180" width="720" height="90" fill="#111827"/>
  <rect x="140" y="220" width="680" height="6" fill="#fde047"/>
  <circle cx="120" cy="180" r="4" fill="#fde047"/>
  <circle cx="200" cy="180" r="4" fill="#fde047"/>
  <circle cx="280" cy="180" r="4" fill="#fde047"/>
  <circle cx="360" cy="180" r="4" fill="#fde047"/>
  <circle cx="440" cy="180" r="4" fill="#fde047"/>
  <circle cx="520" cy="180" r="4" fill="#fde047"/>
  <circle cx="600" cy="180" r="4" fill="#fde047"/>
  <circle cx="680" cy="180" r="4" fill="#fde047"/>
  <circle cx="760" cy="180" r="4" fill="#fde047"/>
  <rect x="430" y="200" width="100" height="35" fill="#f8fafc"/>
  <text x="480" y="224" text-anchor="middle" font-family="Arial" font-size="20" fill="#1f2937">27</text>
  <rect x="40" y="290" width="220" height="60" fill="#2563eb" rx="8"/>
  <text x="150" y="325" text-anchor="middle" font-family="Arial" font-size="18" fill="#f8fafc">Taxiway A</text>
  <rect x="700" y="300" width="210" height="55" fill="#fbbf24" rx="8"/>
  <text x="805" y="335" text-anchor="middle" font-family="Arial" font-size="16" fill="#1f2937">Hold Short</text>
  <circle cx="840" cy="80" r="28" fill="#e2e8f0"/>
  <circle cx="820" cy="70" r="28" fill="#0f172a"/>
</svg>
